# xmcd
#
# Track frame offsets: 
#        150
#        11367
#        20535
#        29787
#        39635
#        52355
#        65317
#        80392
#        90142
#        105537
#        113595
#        123975
#        134705
#        153865
#        168107
#        177570
#        187522
#        196530
#        207975
#        217865
#        228807
#        240230
#
# Disc length: 3345 seconds
#
# Revision: 3
# Processed by: cddbd v1.5.2PL0 Copyright (c) Steve Scherf et al.
# Submitted via: ExactAudioCopy v1.0b4
#
DISCID=0e0d0f16
DTITLE=Ryo Yoshimata and NAOTO - Dr.コトー診療所オリジナルサウンドトラック
DYEAR=2003
DGENRE=Soundtrack
TTITLE0=Coto
TTITLE1=Yuuna
TTITLE2=Stage
TTITLE3=ふがらっさ
TTITLE4=Dreamboat
TTITLE5=彩
TTITLE6=I Remember When
TTITLE7=Leading Wire
TTITLE8=Done
TTITLE9=On The Street
TTITLE10=Sunny Place
TTITLE11=ワーリー
TTITLE12=2050
TTITLE13=Kali
TTITLE14=From A Mental Picture
TTITLE15=万象
TTITLE16=Shige
TTITLE17=Salad Days
TTITLE18=Heartwarming
TTITLE19=Pulsation
TTITLE20=銀の竜の背に乗って (Instrumental)
TTITLE21=Shikina
EXTD=YEAR: 2003
EXTT0=
EXTT1=
EXTT2=
EXTT3=
EXTT4=
EXTT5=
EXTT6=
EXTT7=
EXTT8=
EXTT9=
EXTT10=
EXTT11=
EXTT12=
EXTT13=
EXTT14=
EXTT15=
EXTT16=
EXTT17=
EXTT18=
EXTT19=
EXTT20=
EXTT21=
PLAYORDER=
